<svg xmlns="http://www.w3.org/2000/svg" width="128" height="128" viewBox="0 0 128 128">
  <defs>
    <radialGradient id="bg" cx="40%" cy="35%" r="65%">
      <stop offset="0%" stop-color="#7a5230"/>
      <stop offset="100%" stop-color="#3d2010"/>
    </radialGradient>
  </defs>
  <rect width="128" height="128" rx="12" fill="url(#bg)"/>
  <rect width="128" height="128" rx="12" fill="none" stroke="rgba(255,255,255,0.12)" stroke-width="1.5"/>
  <!-- กระสอบปุ๋ย -->
  <rect x="24" y="42" width="80" height="62" rx="10" fill="#c8a060"/>
  <rect x="24" y="42" width="80" height="62" rx="10" fill="none" stroke="#8b6020" stroke-width="2.5"/>
  <!-- ปากกระสอบรัด -->
  <rect x="38" y="34" width="52" height="14" rx="7" fill="#a07040"/>
  <rect x="38" y="34" width="52" height="14" rx="7" fill="none" stroke="#7a5020" stroke-width="2"/>
  <!-- เส้นกระสอบ -->
  <line x1="64" y1="42" x2="64" y2="104" stroke="#8b6020" stroke-width="1.5" stroke-dasharray="4,4" opacity="0.5"/>
  <line x1="24" y1="73" x2="104" y2="73" stroke="#8b6020" stroke-width="1.5" stroke-dasharray="4,4" opacity="0.5"/>
  <!-- ข้อความบนถุง -->
  <text x="64" y="64" text-anchor="middle" font-size="10" font-weight="bold" fill="#3d2010" font-family="Arial">ปุ๋ย</text>
  <text x="64" y="78" text-anchor="middle" font-size="8" fill="#5a3015" font-family="Arial">FERTILIZER</text>
  <!-- เม็ดปุ๋ย -->
  <circle cx="40" cy="92" r="4" fill="#e8c080" opacity="0.8"/>
  <circle cx="54" cy="96" r="3" fill="#d4a860" opacity="0.8"/>
  <circle cx="80" cy="93" r="4" fill="#e8c080" opacity="0.8"/>
  <circle cx="92" cy="88" r="3" fill="#d4a860" opacity="0.8"/>
  <!-- ใบไม้เล็ก -->
  <path d="M20 38 Q28 24 36 38" stroke="#50a030" stroke-width="2.5" fill="#70c040" opacity="0.9"/>
  <path d="M96 34 Q104 20 112 34" stroke="#50a030" stroke-width="2.5" fill="#70c040" opacity="0.9"/>
</svg>