<svg xmlns="http://www.w3.org/2000/svg" width="128" height="128" viewBox="0 0 128 128">
  <defs>
    <radialGradient id="bgfruit_smoothie" cx="40%" cy="35%" r="65%">
      <stop offset="0%" stop-color="#e86a1a" stop-opacity="0.9"/>
      <stop offset="100%" stop-color="#9c3d00" stop-opacity="0.95"/>
    </radialGradient>
    <filter id="shadowfruit_smoothie">
      <feDropShadow dx="0" dy="3" stdDeviation="4" flood-color="#000" flood-opacity="0.4"/>
    </filter>
  </defs>
  <rect width="128" height="128" rx="12" fill="url(#bgfruit_smoothie)"/>
  <rect width="128" height="128" rx="12" fill="none" stroke="rgba(255,255,255,0.15)" stroke-width="1.5"/>
  <g filter="url(#shadowfruit_smoothie)">
    
      <path d="M40 45 L36 95 Q36 100 42 100 L86 100 Q92 100 92 95 L88 45 Z" fill="#ff9a3c"/>
      <path d="M40 45 L36 95 Q36 100 42 100 L86 100 Q92 100 92 95 L88 45 Z" fill="none" stroke="#e06010" stroke-width="2"/>
      <rect x="36" y="40" width="56" height="8" rx="4" fill="#e06010"/>
      <path d="M64 40 L64 20" stroke="#ccc" stroke-width="3"/>
      <circle cx="64" cy="18" r="5" fill="#ff6060"/>
      <path d="M44 68 Q64 58 84 68" stroke="#fff" stroke-width="2" fill="none" opacity="0.5"/>
      <path d="M42 78 Q64 68 86 78" stroke="#fff" stroke-width="2" fill="none" opacity="0.3"/>
      <ellipse cx="55" cy="60" rx="8" ry="5" fill="#ff6060" opacity="0.6"/>
      <ellipse cx="74" cy="64" rx="7" ry="4" fill="#ffd040" opacity="0.6"/>
    
  </g>
</svg>