<svg xmlns="http://www.w3.org/2000/svg" width="128" height="128" viewBox="0 0 128 128">
  <defs>
    <radialGradient id="bg" cx="40%" cy="35%" r="65%">
      <stop offset="0%" stop-color="#4a7a20"/>
      <stop offset="100%" stop-color="#1e3a08"/>
    </radialGradient>
  </defs>
  <rect width="128" height="128" rx="12" fill="url(#bg)"/>
  <rect width="128" height="128" rx="12" fill="none" stroke="rgba(255,255,255,0.12)" stroke-width="1.5"/>
  <!-- ขวดสเปรย์ -->
  <rect x="38" y="48" width="46" height="60" rx="8" fill="#d0e890"/>
  <rect x="38" y="48" width="46" height="60" rx="8" fill="none" stroke="#8ab030" stroke-width="2"/>
  <!-- ฝาขวด -->
  <rect x="46" y="36" width="30" height="16" rx="6" fill="#a0c040"/>
  <rect x="46" y="36" width="30" height="16" rx="6" fill="none" stroke="#78a020" stroke-width="2"/>
  <!-- ปั๊มสเปรย์ -->
  <rect x="56" y="22" width="10" height="18" rx="5" fill="#78a020"/>
  <!-- หัวสเปรย์ -->
  <path d="M66 28 L88 24 L92 30 L68 34 Z" fill="#5a8010"/>
  <!-- สเปรย์ออกมา -->
  <circle cx="96" cy="22" r="3" fill="#b0e060" opacity="0.7"/>
  <circle cx="102" cy="18" r="2" fill="#b0e060" opacity="0.5"/>
  <circle cx="100" cy="28" r="2.5" fill="#b0e060" opacity="0.6"/>
  <circle cx="108" cy="24" r="2" fill="#b0e060" opacity="0.4"/>
  <!-- ป้ายฉลาก -->
  <rect x="44" y="60" width="34" height="32" rx="4" fill="#fff" opacity="0.85"/>
  <text x="61" y="73" text-anchor="middle" font-size="7" font-weight="bold" fill="#c00" font-family="Arial">ยาฆ่า</text>
  <text x="61" y="83" text-anchor="middle" font-size="7" font-weight="bold" fill="#c00" font-family="Arial">แมลง</text>
  <!-- สัญลักษณ์ผีเสื้อ/แมลง ขีดฆ่า -->
  <line x1="48" y1="88" x2="74" y2="86" stroke="#c00" stroke-width="1.5" opacity="0.6"/>
</svg>