<svg xmlns="http://www.w3.org/2000/svg" width="128" height="128" viewBox="0 0 128 128">
  <defs>
    <radialGradient id="bg" cx="40%" cy="35%" r="65%">
      <stop offset="0%" stop-color="#1a6a9a"/>
      <stop offset="100%" stop-color="#0a3060"/>
    </radialGradient>
    <linearGradient id="water" x1="0%" y1="0%" x2="0%" y2="100%">
      <stop offset="0%" stop-color="#60c0f0" stop-opacity="0.9"/>
      <stop offset="100%" stop-color="#1a80c0" stop-opacity="0.95"/>
    </linearGradient>
  </defs>
  <rect width="128" height="128" rx="12" fill="url(#bg)"/>
  <rect width="128" height="128" rx="12" fill="none" stroke="rgba(255,255,255,0.12)" stroke-width="1.5"/>
  <!-- หูถัง -->
  <path d="M42 46 Q64 28 86 46" stroke="#888" stroke-width="4" fill="none" stroke-linecap="round"/>
  <!-- ตัวถัง -->
  <path d="M34 50 L28 100 Q28 108 38 108 L90 108 Q100 108 100 100 L94 50 Z" fill="#a0a8b8"/>
  <path d="M34 50 L28 100 Q28 108 38 108 L90 108 Q100 108 100 100 L94 50 Z" fill="none" stroke="#707888" stroke-width="2"/>
  <!-- ขอบบนถัง -->
  <rect x="30" y="46" width="68" height="8" rx="4" fill="#888898"/>
  <!-- น้ำในถัง -->
  <path d="M36 72 L30 100 Q30 106 38 106 L90 106 Q98 106 98 100 L92 72 Z" fill="url(#water)" opacity="0.9"/>
  <!-- ระลอกน้ำ -->
  <path d="M38 76 Q52 70 64 76 Q76 82 92 76" stroke="#fff" stroke-width="1.5" fill="none" opacity="0.5"/>
  <path d="M40 84 Q54 78 66 84 Q78 90 92 84" stroke="#fff" stroke-width="1" fill="none" opacity="0.3"/>
  <!-- หยดน้ำ -->
  <path d="M56 20 Q56 12 60 10 Q64 8 64 16 Q64 22 60 24 Q56 22 56 20Z" fill="#60c0f0" opacity="0.8"/>
  <path d="M74 16 Q74 10 77 8 Q80 6 80 12 Q80 17 77 19 Q74 17 74 16Z" fill="#60c0f0" opacity="0.6"/>
</svg>